{"accessors" : [{"bufferView" : 0, "byteOffset" : 0, "componentType" : 5123, "count" : 618, "type" : "SCALAR", "max" : [495], "min" : [0]}, {"bufferView" : 1, "byteOffset" : 0, "componentType" : 5126, "count" : 496, "type" : "VEC3", "max" : [0.056402046233415604, 1.6551134586334229, 0.1216244325041771], "min" : [0.012855416163802147, 1.6116334199905396, 0.09995704889297485], "name" : "POSITION"}, {"bufferView" : 1, "byteOffset" : 12, "componentType" : 5126, "count" : 496, "type" : "VEC2", "max" : [0.9646214246749878, 0.9818061590194702], "min" : [0.019903719425201416, 0.020990610122680664], "name" : "TEXCOORD_0"}, {"bufferView" : 1, "byteOffset" : 20, "componentType" : 5126, "count" : 496, "type" : "VEC3", "max" : [0.9406006932258606, 0.9512309432029724, 1.0000042915344238], "min" : [-0.9471116065979004, -0.9485120177268982, -1.0000042915344238], "name" : "NORMAL"}, {"bufferView" : 0, "byteOffset" : 1236, "componentType" : 5123, "count" : 618, "type" : "SCALAR", "max" : [500], "min" : [0]}, {"bufferView" : 2, "byteOffset" : 0, "componentType" : 5126, "count" : 501, "type" : "VEC3", "max" : [-0.013167474418878555, 1.6551584005355835, 0.12162446230649948], "min" : [-0.05654097720980644, 1.611588954925537, 0.09995708614587784], "name" : "POSITION"}, {"bufferView" : 2, "byteOffset" : 12, "componentType" : 5126, "count" : 501, "type" : "VEC2", "max" : [0.9585750699043274, 0.966354489326477], "min" : [0.006885886192321777, 0.022762417793273926], "name" : "TEXCOORD_0"}, {"bufferView" : 2, "byteOffset" : 20, "componentType" : 5126, "count" : 501, "type" : "VEC3", "max" : [0.9310468435287476, 0.9478710293769836, 1.0000042915344238], "min" : [-0.9491647481918335, -0.9364743232727051, -1.0000042915344238], "name" : "NORMAL"}, {"bufferView" : 0, "byteOffset" : 2472, "componentType" : 5123, "count" : 12282, "type" : "SCALAR", "max" : [9739], "min" : [0]}, {"bufferView" : 3, "byteOffset" : 0, "componentType" : 5126, "count" : 9740, "type" : "VEC3", "max" : [0.09259052574634552, 1.7430979013442993, 0.15501148998737335], "min" : [-0.09260261058807373, 1.432160496711731, -0.05552249774336815], "name" : "POSITION"}, {"bufferView" : 3, "byteOffset" : 12, "componentType" : 5126, "count" : 9740, "type" : "VEC2", "max" : [0.9943000078201294, 0.9807000160217285], "min" : [0.004999999888241291, 0.004350006580352783], "name" : "TEXCOORD_0"}, {"bufferView" : 3, "byteOffset" : 20, "componentType" : 5126, "count" : 9740, "type" : "VEC3", "max" : [0.9992218613624573, 0.9998693466186523, 0.9999847412109375], "min" : [-0.9992175102233887, -0.9999938011169434, -0.9999959468841553], "name" : "NORMAL"}, {"bufferView" : 0, "byteOffset" : 27036, "componentType" : 5123, "count" : 300, "type" : "SCALAR", "max" : [241], "min" : [0]}, {"bufferView" : 4, "byteOffset" : 0, "componentType" : 5126, "count" : 242, "type" : "VEC3", "max" : [0.02627471834421158, 1.5867949724197388, 0.1309942901134491], "min" : [-0.02627471834421158, 1.5531426668167114, 0.06806949526071548], "name" : "POSITION"}, {"bufferView" : 4, "byteOffset" : 12, "componentType" : 5126, "count" : 242, "type" : "VEC2", "max" : [0.9808249473571777, 0.983213484287262], "min" : [0.051069796085357666, 0.02829587459564209], "name" : "TEXCOORD_0"}, {"bufferView" : 4, "byteOffset" : 20, "componentType" : 5126, "count" : 242, "type" : "VEC3", "max" : [0.9971882700920105, 0.8775893449783325, 0.9974808692932129], "min" : [-0.9971882700920105, -0.9858413934707642, -0.7650182843208313], "name" : "NORMAL"}, {"bufferView" : 0, "byteOffset" : 27636, "componentType" : 5123, "count" : 2895, "type" : "SCALAR", "max" : [2399], "min" : [0]}, {"bufferView" : 5, "byteOffset" : 0, "componentType" : 5126, "count" : 2400, "type" : "VEC3", "max" : [0.08245986700057983, 1.76686692237854, 0.13006266951560974], "min" : [-0.08245988190174103, 1.5758682489395142, -0.06647021323442459], "name" : "POSITION"}, {"bufferView" : 5, "byteOffset" : 12, "componentType" : 5126, "count" : 2400, "type" : "VEC3", "max" : [0.9994969367980957, 0.9995561838150024, 0.9997411966323853], "min" : [-0.999462366104126, -0.9904692769050598, -0.999850869178772], "name" : "NORMAL"}, {"bufferView" : 5, "byteOffset" : 24, "componentType" : 5126, "count" : 2400, "type" : "VEC2", "max" : [0.9186000227928162, 0.9998999834060669], "min" : [9.999999747378752E-05, 0.00010001659393310547], "name" : "TEXCOORD_0"}, {"bufferView" : 0, "byteOffset" : 33428, "componentType" : 5123, "count" : 1860, "type" : "SCALAR", "max" : [1532], "min" : [0]}, {"bufferView" : 6, "byteOffset" : 0, "componentType" : 5126, "count" : 1533, "type" : "VEC3", "max" : [0.08233152329921722, 1.6453516483306885, 0.14227046072483063], "min" : [-0.08233150839805603, 1.60507071018219, 0.011507797054946423], "name" : "POSITION"}, {"bufferView" : 6, "byteOffset" : 12, "componentType" : 5126, "count" : 1533, "type" : "VEC3", "max" : [0.9959605932235718, 1.0000011920928955, 0.9999120235443115], "min" : [-0.9959606528282166, -0.9994269609451294, -0.9992101192474365], "name" : "NORMAL"}, {"bufferView" : 6, "byteOffset" : 24, "componentType" : 5126, "count" : 1533, "type" : "VEC2", "max" : [0.9907448887825012, 0.998046875], "min" : [0.001953125, 0.001953125], "name" : "TEXCOORD_0"}, {"bufferView" : 0, "byteOffset" : 37148, "componentType" : 5123, "count" : 17289, "type" : "SCALAR", "max" : [13941], "min" : [0]}, {"bufferView" : 7, "byteOffset" : 0, "componentType" : 5126, "count" : 13942, "type" : "VEC3", "max" : [0.44576573371887207, 1.5964831113815308, 0.19397597014904022], "min" : [-0.44576573371887207, 0.9547450542449951, -0.15049821138381958], "name" : "POSITION"}, {"bufferView" : 7, "byteOffset" : 12, "componentType" : 5126, "count" : 13942, "type" : "VEC3", "max" : [0.999948263168335, 0.9999495148658752, 0.9997034668922424], "min" : [-0.999948263168335, -0.9999570846557617, -0.9999547004699707], "name" : "NORMAL"}, {"bufferView" : 7, "byteOffset" : 24, "componentType" : 5126, "count" : 13942, "type" : "VEC2", "max" : [0.9922528862953186, 0.9884485006332397], "min" : [0.013227399438619614, 0.0077776312828063965], "name" : "TEXCOORD_0"}, {"bufferView" : 0, "byteOffset" : 71728, "componentType" : 5123, "count" : 10653, "type" : "SCALAR", "max" : [8500], "min" : [0]}, {"bufferView" : 8, "byteOffset" : 0, "componentType" : 5126, "count" : 8501, "type" : "VEC3", "max" : [0.24799102544784546, 1.0950026512145996, 0.16769255697727203], "min" : [-0.24797143042087555, 0.12856924533843994, -0.13976284861564636], "name" : "POSITION"}, {"bufferView" : 8, "byteOffset" : 12, "componentType" : 5126, "count" : 8501, "type" : "VEC3", "max" : [0.9999853372573853, 0.9996110796928406, 0.9999352693557739], "min" : [-0.9993050694465637, -0.9985749125480652, -0.9999585747718811], "name" : "NORMAL"}, {"bufferView" : 8, "byteOffset" : 24, "componentType" : 5126, "count" : 8501, "type" : "VEC2", "max" : [0.9921875, 0.9921875], "min" : [0.0078125, 0.1466660499572754], "name" : "TEXCOORD_0"}, {"bufferView" : 0, "byteOffset" : 93036, "componentType" : 5123, "count" : 5766, "type" : "SCALAR", "max" : [4679], "min" : [0]}, {"bufferView" : 9, "byteOffset" : 0, "componentType" : 5126, "count" : 4680, "type" : "VEC3", "max" : [0.2331690490245819, 0.2061425745487213, 0.19409126043319702], "min" : [-0.2331690490245819, -0.0015362852718681097, -0.11887040734291077], "name" : "POSITION"}, {"bufferView" : 9, "byteOffset" : 12, "componentType" : 5126, "count" : 4680, "type" : "VEC3", "max" : [0.9983726143836975, 0.9999991059303284, 0.9994955062866211], "min" : [-0.9983726143836975, -0.9999201893806458, -0.9995663166046143], "name" : "NORMAL"}, {"bufferView" : 9, "byteOffset" : 24, "componentType" : 5126, "count" : 4680, "type" : "VEC2", "max" : [0.9938750267028809, 0.9925908446311951], "min" : [0.006190999876707792, 0.00893336534500122], "name" : "TEXCOORD_0"}, {"bufferView" : 0, "byteOffset" : 104568, "componentType" : 5123, "count" : 17448, "type" : "SCALAR", "max" : [13985], "min" : [0]}, {"bufferView" : 10, "byteOffset" : 0, "componentType" : 5126, "count" : 13986, "type" : "VEC3", "max" : [0.46416106820106506, 1.3261542320251465, 0.17685912549495697], "min" : [-0.46415674686431885, 0.08372177928686142, -0.07725240290164948], "name" : "POSITION"}, {"bufferView" : 10, "byteOffset" : 12, "componentType" : 5126, "count" : 13986, "type" : "VEC3", "max" : [0.9989665746688843, 0.8557652235031128, 0.9980445504188538], "min" : [-0.998966634273529, -0.9993655681610107, -0.9880269765853882], "name" : "NORMAL"}, {"bufferView" : 10, "byteOffset" : 24, "componentType" : 5126, "count" : 13986, "type" : "VEC2", "max" : [0.9905531406402588, 0.9527736306190491], "min" : [0.009567409753799438, 0.12644481658935547], "name" : "TEXCOORD_0"}], "asset" : {"generator" : "Aspose.3D 23.11.1", "version" : "2.0"}, "buffers" : [{"uri" : "data:application/octet-stream;base64,", "byteLength" : 2370836}], "bufferViews" : [{"buffer" : 0, "byteOffset" : 0, "byteLength" : 139464, "target" : 34963}, {"buffer" : 0, "byteOffset" : 139468, "byteLength" : 19776, "byteStride" : 32, "target" : 34962}, {"buffer" : 0, "byteOffset" : 159248, "byteLength" : 19776, "byteStride" : 32, "target" : 34962}, {"buffer" : 0, "byteOffset" : 179028, "byteLength" : 393024, "byteStride" : 32, "target" : 34962}, {"buffer" : 0, "byteOffset" : 572056, "byteLength" : 9600, "byteStride" : 32, "target" : 34962}, {"buffer" : 0, "byteOffset" : 581660, "byteLength" : 92640, "byteStride" : 32, "target" : 34962}, {"buffer" : 0, "byteOffset" : 674304, "byteLength" : 59520, "byteStride" : 32, "target" : 34962}, {"buffer" : 0, "byteOffset" : 733828, "byteLength" : 553248, "byteStride" : 32, "target" : 34962}, {"buffer" : 0, "byteOffset" : 1287080, "byteLength" : 340896, "byteStride" : 32, "target" : 34962}, {"buffer" : 0, "byteOffset" : 1627980, "byteLength" : 184512, "byteStride" : 32, "target" : 34962}, {"buffer" : 0, "byteOffset" : 1812496, "byteLength" : 558336, "byteStride" : 32, "target" : 34962}], "images" : [{"uri" : "data:image/jpeg;base64,"}, {"uri" : "data:image/jpeg;base64,"}, {"uri" : "data:image/jpeg;base64,"}, {"uri" : "data:image/jpeg;base64,"}, {"uri" : "data:image/jpeg;base64,"}, {"uri" : "data:image/png;base64,"}, {"uri" : "data:image/jpeg;base64,"}, {"uri" : "data:image/jpeg;base64,"}, {"uri" : "data:image/jpeg;base64,"}, {"uri" : "data:image/jpeg;base64,"}, {"uri" : "data:image/jpeg;base64,"}, {"uri" : "data:image/jpeg;base64,"}, {"uri" : "data:image/jpeg;base64,"}, {"uri" : "data:image/jpeg;base64,"}, {"uri" : "data:image/jpeg;base64,"}, {"uri" : "data:image/jpeg;base64,"}], "materials" : [{"name" : "Wolf3D_Eye", "pbrMetallicRoughness" : {"baseColorFactor" : [1, 1, 1, 1], "baseColorTexture" : {"index" : 0, "texCoord" : 0}, "metallicFactor" : 0, "roughnessFactor" : 1}, "emissiveFactor" : [0, 0, 0], "alphaMode" : "OPAQUE", "doubleSided" : false}, {"name" : "Wolf3D_Eye", "pbrMetallicRoughness" : {"baseColorFactor" : [1, 1, 1, 1], "baseColorTexture" : {"index" : 0, "texCoord" : 0}, "metallicFactor" : 0, "roughnessFactor" : 1}, "emissiveFactor" : [0, 0, 0], "alphaMode" : "OPAQUE", "doubleSided" : false}, {"name" : "Wolf3D_Skin", "pbrMetallicRoughness" : {"baseColorFactor" : [1, 1, 1, 1], "baseColorTexture" : {"index" : 1, "texCoord" : 0}, "metallicFactor" : 0, "roughnessFactor" : 0.699999988079071}, "emissiveFactor" : [0, 0, 0], "alphaMode" : "OPAQUE", "doubleSided" : false}, {"name" : "Wolf3D_Teeth", "pbrMetallicRoughness" : {"baseColorFactor" : [1, 1, 1, 1], "baseColorTexture" : {"index" : 2, "texCoord" : 0}, "metallicFactor" : 0, "roughnessFactor" : 1}, "emissiveFactor" : [0, 0, 0], "alphaMode" : "OPAQUE", "doubleSided" : true}, {"name" : "Wolf3D_Hair", "pbrMetallicRoughness" : {"baseColorFactor" : [1, 1, 1, 1], "baseColorTexture" : {"index" : 4, "texCoord" : 0}, "metallicFactor" : 0, "roughnessFactor" : 0.8454545736312866}, "normalTexture" : {"index" : 3, "texCoord" : 0, "scale" : 1}, "emissiveFactor" : [0, 0, 0], "alphaMode" : "OPAQUE", "doubleSided" : false}, {"name" : "Wolf3D_Glasses", "pbrMetallicRoughness" : {"baseColorFactor" : [1, 1, 1, 1], "baseColorTexture" : {"index" : 5, "texCoord" : 0}, "metallicFactor" : 0, "roughnessFactor" : 0.44999998807907104}, "emissiveFactor" : [0, 0, 0], "alphaMode" : "OPAQUE", "doubleSided" : false}, {"name" : "Wolf3D_Outfit_Top", "pbrMetallicRoughness" : {"baseColorFactor" : [1, 1, 1, 1], "baseColorTexture" : {"index" : 7, "texCoord" : 0}, "metallicFactor" : 1, "roughnessFactor" : 1, "metallicRoughnessTexture" : {"index" : 8, "texCoord" : 0}}, "normalTexture" : {"index" : 6, "texCoord" : 0, "scale" : 1}, "emissiveFactor" : [0, 0, 0], "alphaMode" : "OPAQUE", "doubleSided" : false}, {"name" : "Wolf3D_Outfit_Bottom", "pbrMetallicRoughness" : {"baseColorFactor" : [1, 1, 1, 1], "baseColorTexture" : {"index" : 10, "texCoord" : 0}, "metallicFactor" : 1, "roughnessFactor" : 1, "metallicRoughnessTexture" : {"index" : 11, "texCoord" : 0}}, "normalTexture" : {"index" : 9, "texCoord" : 0, "scale" : 1}, "emissiveFactor" : [0, 0, 0], "alphaMode" : "OPAQUE", "doubleSided" : false}, {"name" : "Wolf3D_Outfit_Footwear", "pbrMetallicRoughness" : {"baseColorFactor" : [1, 1, 1, 1], "baseColorTexture" : {"index" : 13, "texCoord" : 0}, "metallicFactor" : 1, "roughnessFactor" : 1, "metallicRoughnessTexture" : {"index" : 14, "texCoord" : 0}}, "normalTexture" : {"index" : 12, "texCoord" : 0, "scale" : 1}, "emissiveFactor" : [0, 0, 0], "alphaMode" : "OPAQUE", "doubleSided" : false}, {"name" : "Wolf3D_Body", "pbrMetallicRoughness" : {"baseColorFactor" : [1, 1, 1, 1], "baseColorTexture" : {"index" : 15, "texCoord" : 0}, "metallicFactor" : 0, "roughnessFactor" : 0.5}, "emissiveFactor" : [0, 0, 0], "alphaMode" : "OPAQUE", "doubleSided" : false}], "meshes" : [{"primitives" : [{"attributes" : {"POSITION" : 1, "TEXCOORD_0" : 2, "NORMAL" : 3}, "indices" : 0, "material" : 0, "mode" : 4}]}, {"primitives" : [{"attributes" : {"POSITION" : 5, "TEXCOORD_0" : 6, "NORMAL" : 7}, "indices" : 4, "material" : 1, "mode" : 4}]}, {"primitives" : [{"attributes" : {"POSITION" : 9, "TEXCOORD_0" : 10, "NORMAL" : 11}, "indices" : 8, "material" : 2, "mode" : 4}]}, {"primitives" : [{"attributes" : {"POSITION" : 13, "TEXCOORD_0" : 14, "NORMAL" : 15}, "indices" : 12, "material" : 3, "mode" : 4}]}, {"primitives" : [{"attributes" : {"POSITION" : 17, "NORMAL" : 18, "TEXCOORD_0" : 19}, "indices" : 16, "material" : 4, "mode" : 4}]}, {"primitives" : [{"attributes" : {"POSITION" : 21, "NORMAL" : 22, "TEXCOORD_0" : 23}, "indices" : 20, "material" : 5, "mode" : 4}]}, {"primitives" : [{"attributes" : {"POSITION" : 25, "NORMAL" : 26, "TEXCOORD_0" : 27}, "indices" : 24, "material" : 6, "mode" : 4}]}, {"primitives" : [{"attributes" : {"POSITION" : 29, "NORMAL" : 30, "TEXCOORD_0" : 31}, "indices" : 28, "material" : 7, "mode" : 4}]}, {"primitives" : [{"attributes" : {"POSITION" : 33, "NORMAL" : 34, "TEXCOORD_0" : 35}, "indices" : 32, "material" : 8, "mode" : 4}]}, {"primitives" : [{"attributes" : {"POSITION" : 37, "NORMAL" : 38, "TEXCOORD_0" : 39}, "indices" : 36, "material" : 9, "mode" : 4}]}], "nodes" : [{"mesh" : 0, "name" : "EyeLeft"}, {"mesh" : 1, "name" : "EyeRight"}, {"mesh" : 2, "name" : "Wolf3D_Head"}, {"mesh" : 3, "name" : "Wolf3D_Teeth"}, {"mesh" : 4, "name" : "Wolf3D_Hair"}, {"mesh" : 5, "name" : "Wolf3D_Glasses"}, {"mesh" : 6, "name" : "Wolf3D_Outfit_Top"}, {"mesh" : 7, "name" : "Wolf3D_Outfit_Bottom"}, {"mesh" : 8, "name" : "Wolf3D_Outfit_Footwear"}, {"mesh" : 9, "name" : "Wolf3D_Body"}, {"children" : [0, 1, 2, 3, 4, 5, 6, 7, 8, 9], "name" : "Armature"}], "samplers" : [{"magFilter" : 9728, "minFilter" : 9728, "wrapS" : 10497, "wrapT" : 10497}, {"magFilter" : 9728, "minFilter" : 9728, "wrapS" : 10497, "wrapT" : 10497}, {"magFilter" : 9729, "minFilter" : 9987, "wrapS" : 10497, "wrapT" : 10497}, {"magFilter" : 9729, "minFilter" : 9987, "wrapS" : 10497, "wrapT" : 10497}, {"magFilter" : 9728, "minFilter" : 9728, "wrapS" : 10497, "wrapT" : 10497}, {"magFilter" : 9729, "minFilter" : 9987, "wrapS" : 33071, "wrapT" : 33071}, {"magFilter" : 9729, "minFilter" : 9987, "wrapS" : 33071, "wrapT" : 33071}, {"magFilter" : 9729, "minFilter" : 9987, "wrapS" : 33071, "wrapT" : 33071}, {"magFilter" : 9729, "minFilter" : 9987, "wrapS" : 33071, "wrapT" : 33071}, {"magFilter" : 9729, "minFilter" : 9987, "wrapS" : 33071, "wrapT" : 33071}, {"magFilter" : 9729, "minFilter" : 9987, "wrapS" : 33071, "wrapT" : 33071}, {"magFilter" : 9729, "minFilter" : 9987, "wrapS" : 33071, "wrapT" : 33071}, {"magFilter" : 9729, "minFilter" : 9987, "wrapS" : 33071, "wrapT" : 33071}, {"magFilter" : 9729, "minFilter" : 9987, "wrapS" : 33071, "wrapT" : 33071}, {"magFilter" : 9729, "minFilter" : 9987, "wrapS" : 33071, "wrapT" : 33071}, {"magFilter" : 9728, "minFilter" : 9728, "wrapS" : 10497, "wrapT" : 10497}], "scene" : 0, "scenes" : [{"nodes" : [10]}], "textures" : [{"sampler" : 0, "source" : 0, "name" : ""}, {"sampler" : 1, "source" : 1, "name" : ""}, {"sampler" : 2, "source" : 2, "name" : ""}, {"sampler" : 3, "source" : 3, "name" : ""}, {"sampler" : 4, "source" : 4, "name" : ""}, {"sampler" : 5, "source" : 5, "name" : ""}, {"sampler" : 6, "source" : 6, "name" : ""}, {"sampler" : 7, "source" : 7, "name" : ""}, {"sampler" : 8, "source" : 8, "name" : ""}, {"sampler" : 9, "source" : 9, "name" : ""}, {"sampler" : 10, "source" : 10, "name" : ""}, {"sampler" : 11, "source" : 11, "name" : ""}, {"sampler" : 12, "source" : 12, "name" : ""}, {"sampler" : 13, "source" : 13, "name" : ""}, {"sampler" : 14, "source" : 14, "name" : ""}, {"sampler" : 15, "source" : 15, "name" : ""}]}